<svg width="173" height="38" viewBox="0 0 173 38" fill="none" xmlns="http://www.w3.org/2000/svg">
<path d="M47.588 26V15.272H42.8V13.4H54.428V15.272H49.532V26H47.588ZM66.5624 18.8C66.2984 18.644 65.9744 18.524 65.5904 18.44C65.2064 18.344 64.8404 18.296 64.4924 18.296C63.7724 18.296 63.1484 18.452 62.6204 18.764C62.0924 19.064 61.6844 19.448 61.3964 19.916C61.1204 20.372 60.9824 20.84 60.9824 21.32V26H59.1104V16.55H60.9824V18.674C61.4024 17.99 61.9544 17.432 62.6384 17C63.3224 16.568 64.0304 16.352 64.7624 16.352C65.2064 16.352 65.6384 16.4 66.0584 16.496C66.4784 16.592 66.8084 16.724 67.0484 16.892L66.5624 18.8ZM82.9206 16.55V26H81.0666V24.362C80.8146 24.674 80.4606 24.968 80.0046 25.244C79.5486 25.52 79.0266 25.748 78.4386 25.928C77.8506 26.096 77.2326 26.18 76.5846 26.18C75.4446 26.18 74.4486 25.97 73.5966 25.55C72.7566 25.13 72.1086 24.548 71.6526 23.804C71.1966 23.06 70.9686 22.214 70.9686 21.266C70.9686 20.306 71.2086 19.46 71.6886 18.728C72.1806 17.984 72.8526 17.402 73.7046 16.982C74.5686 16.562 75.5646 16.352 76.6926 16.352C77.6646 16.352 78.5346 16.508 79.3026 16.82C80.0826 17.12 80.6706 17.48 81.0666 17.9V16.55H82.9206ZM76.9986 24.47C77.8266 24.47 78.5466 24.332 79.1586 24.056C79.7826 23.768 80.2686 23.384 80.6166 22.904C80.9646 22.424 81.1386 21.878 81.1386 21.266C81.1386 20.654 80.9646 20.108 80.6166 19.628C80.2686 19.148 79.7826 18.77 79.1586 18.494C78.5466 18.218 77.8266 18.08 76.9986 18.08C76.1946 18.08 75.4806 18.218 74.8566 18.494C74.2326 18.77 73.7406 19.148 73.3806 19.628C73.0326 20.108 72.8586 20.654 72.8586 21.266C72.8586 21.878 73.0326 22.424 73.3806 22.904C73.7406 23.384 74.2326 23.768 74.8566 24.056C75.4806 24.332 76.1946 24.47 76.9986 24.47ZM97.6873 19.142C97.1713 18.782 96.5473 18.482 95.8153 18.242C95.0833 18.002 94.3813 17.882 93.7093 17.882C93.4093 17.882 93.0853 17.9 92.7373 17.936C92.4013 17.96 92.0833 18.014 91.7833 18.098C91.4833 18.182 91.2373 18.302 91.0453 18.458C90.8533 18.602 90.7573 18.788 90.7573 19.016C90.7693 19.292 90.9253 19.52 91.2253 19.7C91.5253 19.88 91.9213 20.03 92.4133 20.15C92.9053 20.27 93.4453 20.378 94.0333 20.474C94.6093 20.558 95.1733 20.666 95.7253 20.798C96.2773 20.918 96.7753 21.074 97.2193 21.266C97.6753 21.458 98.0353 21.704 98.2993 22.004C98.5753 22.304 98.7133 22.67 98.7133 23.102C98.7133 23.774 98.5033 24.344 98.0833 24.812C97.6753 25.268 97.1173 25.61 96.4093 25.838C95.7013 26.066 94.9153 26.18 94.0513 26.18C92.9473 26.18 91.9333 26.042 91.0093 25.766C90.0973 25.49 89.3233 25.022 88.6873 24.362L89.9473 23.192C90.4273 23.636 90.9913 23.99 91.6393 24.254C92.2993 24.506 93.0313 24.632 93.8353 24.632C94.1473 24.632 94.4773 24.62 94.8253 24.596C95.1733 24.56 95.4973 24.5 95.7973 24.416C96.1093 24.332 96.3613 24.212 96.5533 24.056C96.7453 23.9 96.8413 23.696 96.8413 23.444C96.8413 23.168 96.6793 22.952 96.3553 22.796C96.0433 22.628 95.6293 22.49 95.1133 22.382C94.5973 22.274 94.0393 22.178 93.4393 22.094C92.8153 21.986 92.2273 21.872 91.6753 21.752C91.1233 21.62 90.6373 21.452 90.2173 21.248C89.8093 21.044 89.4853 20.768 89.2453 20.42C89.0173 20.072 88.9033 19.628 88.9033 19.088C88.9033 18.524 89.1133 18.038 89.5333 17.63C89.9653 17.222 90.5413 16.91 91.2613 16.694C91.9933 16.466 92.8093 16.352 93.7093 16.352C94.2733 16.352 94.8613 16.406 95.4733 16.514C96.0853 16.61 96.6733 16.772 97.2373 17C97.8013 17.216 98.2753 17.504 98.6593 17.864L97.6873 19.142ZM110.861 16.352C111.821 16.352 112.619 16.538 113.255 16.91C113.903 17.27 114.383 17.762 114.695 18.386C115.019 18.998 115.181 19.676 115.181 20.42V26H113.327V20.726C113.327 20.198 113.189 19.73 112.913 19.322C112.637 18.914 112.265 18.596 111.797 18.368C111.329 18.14 110.813 18.026 110.249 18.026C109.733 18.026 109.253 18.122 108.809 18.314C108.377 18.506 107.999 18.752 107.675 19.052C107.363 19.352 107.117 19.676 106.937 20.024C106.769 20.36 106.685 20.684 106.685 20.996V26H104.831V12.68H106.685V18.152C107.129 17.672 107.717 17.252 108.449 16.892C109.181 16.532 109.985 16.352 110.861 16.352ZM122.411 26V13.4H132.743V15.272H124.355V18.944H131.933V20.816H124.355V26H122.411ZM139.051 26V12.68H140.905V26H139.051ZM149.535 14.498C149.115 14.498 148.803 14.39 148.599 14.174C148.395 13.958 148.293 13.676 148.293 13.328C148.293 13.028 148.395 12.758 148.599 12.518C148.803 12.278 149.115 12.158 149.535 12.158C149.955 12.158 150.267 12.266 150.471 12.482C150.675 12.698 150.777 12.98 150.777 13.328C150.777 13.628 150.675 13.898 150.471 14.138C150.267 14.378 149.955 14.498 149.535 14.498ZM150.453 26H148.599V16.55H150.453V26ZM157.097 26L161.849 21.014L157.439 16.55H160.229L163.361 20.024L166.745 16.55H169.391L164.567 21.248L169.535 26H166.817L163.055 22.238L159.725 26.018L157.097 26Z" fill="white"/>
<path fill-rule="evenodd" clip-rule="evenodd" d="M10.935 8.63684C13.2964 7.72846 15.9836 7.26703 19 7.25617C22.0165 7.24351 24.7037 7.70494 27.0651 8.63684C28.3359 9.00035 29.4305 9.81504 30.1434 10.9281C30.8563 12.0411 31.1387 13.3761 30.9375 14.6825L28.9922 27.3383C28.7294 29.0473 27.8634 30.6058 26.551 31.7317C25.2386 32.8576 23.5665 33.4764 21.8374 33.4762H16.1627C14.4336 33.4764 12.7615 32.8576 11.4491 31.7317C10.1367 30.6058 9.27068 29.0473 9.00785 27.3383L7.0608 14.6825C6.86015 13.3761 7.14298 12.0414 7.85623 10.9287C8.56949 9.81603 9.66418 9.00177 10.935 8.63865V8.63684Z" stroke="white" stroke-linecap="round" stroke-linejoin="round"/>
<path fill-rule="evenodd" clip-rule="evenodd" d="M19 18.0952C25.4347 18.0952 28.0476 15.381 28.0476 13.5714C28.0476 11.7619 25.4347 9.5 19 9.5C12.5653 9.5 9.95239 11.7619 9.95239 13.5714C9.95239 15.381 12.5653 18.0952 19 18.0952Z" fill="white"/>
</svg>
